
<svg width="465" height="235" xmlns="http://www.w3.org/2000/svg" xmlns:xlink="http://www.w3.org/1999/xlink">
  <defs>
    <path id="a" d="M0 0h468v235H0z"/>
    <path id="c" d="M104.5 23.594V.784H.387v45.62H104.5v-22.81z"/>
  </defs>
  <g fill="none" fill-rule="evenodd" opacity=".3">
    <mask id="b" fill="#fff">
      <use xlink:href="#a"/>
    </mask>
    <g mask="url(#b)">
      <g opacity=".4">
        <path d="M338.192 231.757v.03h14.956c2.368 0 4.292 1.862 4.292 4.147 0 .021-.003.042-.003.066H199.003c0-.024-.003-.045-.003-.066 0-2.285 1.924-4.147 4.289-4.147h102.633l.061-.003c.08.006.167 0 .25-.003l.15-.01v-.008c1.395-.17 2.479-1.323 2.479-2.723 0-1.395-1.084-2.551-2.478-2.718v-.024h-26.492c-2.365 0-4.289-1.862-4.289-4.15 0-2.286 1.924-4.148 4.289-4.148h105.82c2.364 0 4.288 1.862 4.288 4.148 0 2.288-1.924 4.15-4.289 4.15H338.59c-.043 0-.086 0-.126.003l-.27.003v.024c-1.377.185-2.439 1.329-2.439 2.712 0 1.385 1.062 2.532 2.438 2.717" fill="#2D5B8A"/>
        <path d="M329.353 213.756c-.858 0-1.378-.036-1.417-.036-7.69 0-13.936-6.252-13.936-13.934 0-7.682 6.245-13.93 13.936-13.93.83 0 1.693.086 2.579.252l.63.118.063-.638A13.866 13.866 0 0 1 345.068 173c3.891 0 7.644 1.658 10.282 4.556l.437.476.43-.476a13.945 13.945 0 0 1 10.28-4.556c7.254 0 13.35 5.67 13.878 12.91l.059.725.693-.205a13.93 13.93 0 0 1 3.937-.574c7.687 0 13.936 6.248 13.936 13.93 0 7.682-6.25 13.934-13.936 13.934l-.141.016c-.012 0-1.119.264-3.202.264-2.292 0-6.088-.319-11.163-1.839-5.178-1.555-11.191-2.41-16.944-2.41-5.312 0-9.959.737-13.432 2.127-4.087 1.634-8.545 1.878-10.829 1.878" fill="#66B3AA"/>
        <path d="M345.34 185c.05 0 .097-.007.15-.017l.024-.011c.011-.003.023-.003.035-.007.011-.003.023-.01.03-.014.008 0 .012 0 .016-.003.019-.004.03-.018.046-.021a.398.398 0 0 0 .13-.088c.012-.01.024-.014.035-.024l6.044-6.129a.485.485 0 0 0-.042-.737.618.618 0 0 0-.809.042l-4.369 4.427 1.867-5.737c.093-.276-.08-.57-.389-.647-.304-.087-.623.074-.712.35l-2.025 6.216-1.867-6.216c-.08-.28-.396-.444-.704-.364-.304.07-.485.357-.4.636l1.878 6.269-5.447-4.295a.62.62 0 0 0-.812.05.491.491 0 0 0 .058.737l4.962 3.916-6.31-1.6c-.304-.077-.623.087-.708.36-.085.28.093.566.4.646l8.654 2.195c.08.038.17.066.266.066m-15.788 4.233a.604.604 0 0 0-.736.446l-1.755 6.902-1.26-7.066a.602.602 0 0 0-.7-.504.623.623 0 0 0-.479.73l1.365 7.663-4.987-5.738a.593.593 0 0 0-.85-.042.65.65 0 0 0-.043.886l5.03 5.785-7.32-1.907a.607.607 0 0 0-.729.457c-.08.34.117.681.439.76l6.673 1.74-6.717 1.412a.626.626 0 0 0-.471.739.605.605 0 0 0 .708.491l9.196-1.932c.008 0 .016.004.024.004a.618.618 0 0 0 .314-.1c.016-.017.032-.022.049-.034l.008-.004c.004-.005.012-.009.02-.017.004 0 .008-.004.012-.009.008-.004.008-.016.016-.02.04-.038.08-.072.109-.123.004-.004.004-.012.008-.02a.52.52 0 0 0 .072-.169l2.43-9.557c.085-.336-.104-.684-.426-.773m54.897 10.335c.016.063.044.11.073.168.004.005.004.013.008.021.028.047.068.076.108.114.008.012.008.02.016.03.004.003.008.003.012.008a.076.076 0 0 1 .025.016l.004.005.044.025c.1.063.21.109.314.109.008 0 .016-.004.024-.004l9.198 1.927a.653.653 0 0 0 .12.013c.283 0 .532-.21.592-.504a.631.631 0 0 0-.47-.74l-6.72-1.41 6.671-1.735a.63.63 0 0 0 .439-.76.597.597 0 0 0-.728-.458l-7.32 1.903 5.03-5.783a.657.657 0 0 0-.04-.886.585.585 0 0 0-.85.046l-4.989 5.728 1.364-7.651a.64.64 0 0 0-.482-.74.597.597 0 0 0-.696.504l-1.26 7.073-1.754-6.905a.593.593 0 0 0-.737-.44.631.631 0 0 0-.426.764l2.43 9.562zm-18.255-14.753c.008.01.023.014.03.02.043.036.082.06.135.085.016.007.027.017.043.024.004 0 .007 0 .011.007.016.004.02.007.035.01l.035.011c.007 0 .019.007.027.007a.536.536 0 0 0 .411-.049l8.658-2.196c.308-.073.481-.363.4-.639-.084-.279-.4-.44-.712-.366l-6.31 1.602 4.967-3.917a.486.486 0 0 0 .053-.733.614.614 0 0 0-.808-.049l-5.45 4.294 1.882-6.263c.08-.279-.1-.565-.408-.646-.304-.073-.62.091-.701.37l-1.87 6.208-2.018-6.204c-.092-.28-.416-.436-.72-.356-.304.084-.477.373-.385.65l1.871 5.732-4.373-4.424a.615.615 0 0 0-.812-.041.492.492 0 0 0-.039.736l6.048 6.127z" fill="#FFF"/>
        <path d="M417.964 193c.003 0 .006.003.012.003.366.035 9.024.97 9.024 11.921v3.912a.492.492 0 0 0-.186-.026c-.064.006-6.628.692-6.628 8.605V241H406c14.497-21.988 10.132-43.234 9.484-45.957a32.643 32.643 0 0 0 2.48-2.043" fill="#B9C4D0"/>
        <path d="M421 217.686c0-7.025 5.656-7.632 5.897-7.655.038-.002.068-.02.103-.031v31h-6v-23.314z" fill="#CBD2DA"/>
        <path d="M418 192.214c.414-.394.821-.797 1.235-1.214 2.145.38 11.762 2.836 11.762 16.238v33.748c0 .005.003.008.003.014h-4.006v-36.111c0-9.892-6.774-12.189-8.994-12.675" fill="#C0CBD8"/>
        <path d="M420 190.975c4.652-4.88 8.894-10.71 9.802-11.975 1.936.428 12.821 2.81 16.352 2.552.35 2.298 2.537 13.064 13.443 20.469-.24 2.586-1.771 23.338 8.403 39.979h-36.02c0-.006.006-.012.006-.017v-33.941c0-13.16-8.877-16.353-11.986-17.067" fill="#B2BCC8"/>
      </g>
      <path d="M326.212 187.778c-4.342 0-8.148 2.367-10.199 5.881-.021-.003-.043-.012-.07-.012h-26.72c-.052 0-.11 0-.163.003l-.221.003v.015a3.356 3.356 0 0 0 0 6.663v.022h25.585A11.874 11.874 0 0 0 322.818 211H178c.413-.872.825-1.755 1.226-2.658a17.186 17.186 0 0 0 5.117-4.113 18.776 18.776 0 0 0 2.531-3.876h62.698l.077-.003a2.712 2.712 0 0 0 .333-.01h.055v-.002a3.35 3.35 0 0 0 3.005-3.338 3.35 3.35 0 0 0-3.005-3.338v-.015h-32.059c-2.925 0-5.302-2.39-5.302-5.325 0-2.93 2.377-5.322 5.302-5.322H321.72c2.753 0 5.022 2.114 5.281 4.809-.265-.019-.53-.031-.788-.031" fill="#CBD7E4"/>
    </g>
    <g opacity=".4" mask="url(#b)">
      <path d="M73.803 276c-15.829-2.16-28.832-11.848-33.933-26.41l-.216-1.344-.423.077c-2.945.517-6.448.933-10.078.03-7.693-1.905-10.016-6.852-11.264-11.436l-.07-.247-.25-.059c-.04-.008-3.992-.905-6.23-6.078l-.193-.452-.42.257c-.03.02-2.87 1.765-5.982 1.004-2.002-.49-3.702-1.898-5.046-4.189-.123-.288-1.456-3.611-.08-6.626.901-1.966 2.76-3.391 5.532-4.251l.455-.141-.196-.436c-.122-.269-2.885-6.655 2.34-11.35 2.638-2.37 6.189-3.317 9.498-2.531 3.226.772 5.808 3.114 7.087 6.426l.137.359.372-.102c.011-.005 1.328-.362 3.124-.452 1.797-.097 3.429.101 4.847.577 2.135.718 3.733 2.061 4.75 4.004l.325.62.4-.577c.03-.04 2.912-4.127 7.381-4.177l.404-.003.017-.405c.003-.076.41-7.905 7.673-9.695 3.164-.786 6.14-.379 8.608 1.177 2.436 1.538 4.23 4.157 4.796 7.014l.156.775.563-.563c.031-.029 3.3-3.264 7.198-3.691l.282-.031.08-.272c.022-.079 2.47-7.913 12.875-6.12l.46.076.034-.46c.006-.071.688-7.374 9.456-8.24 3.19-.308 5.802.6 7.78 2.707 2.608 2.789 3.21 6.737 2.952 8.23l-.086.504.51-.009c.04.003 4.07-.028 6.56 2.447 1.337 1.332 2 3.159 1.962 5.424-.003.082-.227 7.99-7.579 9.07l-.344.054-.02.345c-.014.283-.398 5.923-6.663 7.775-.077-.679-.668-3.875-5.234-6.816a11.604 11.604 0 0 0-9.504-1.465 15.863 15.863 0 0 0-.978-3.532c-1.171-2.857-3.065-4.828-5.481-5.696-2.618-.942-7.8-1.861-13.086 2.553l-.759.631.981.113c.04.003 3.63.444 5.484 2.964 1.029 1.4 1.339 3.19.921 5.329-.523 2.661-3.056 4.446-4.907 5.75-.259.18-.503.353-.728.517l-.284.2c-2.362 1.678-9.55 6.789-6.67 16.317 2.207 7.263 9.317 11.491 18.374 11.491 1.916 0 3.918-.19 5.979-.582-3.554 1.111-8.378 2.027-13.433 1.255-10.91-1.668-14.007-8.337-14.88-12.164-1.648-7.192 1.328-11.299 4.114-13.482l1.237-.959c5.256-4.087 7.661-5.948 6.863-9.774-.85-4.11-3.719-6.002-6.204-6.11.035-1.645-.304-7.127-6.211-9.126-3.449-1.165-6.087.011-7.696 1.202-2.499 1.858-3.86 4.703-3.983 6.66-1.074.026-3.84.289-5.717 2.243-1.416 1.474-1.998 3.567-1.731 6.22.41 4.14 3.897 6.069 7.164 6.145 2.843.068 6.12-1.383 6.612-4.717.435-2.987-1.083-4.797-2.516-5.442-1.373-.614-2.82-.356-3.687.665l-.429.5.637.179c.014.002 1.265.373 1.703 1.3.238.507.204 1.11-.106 1.802-.605 1.352-1.79 1.315-2.274 1.242-1.037-.17-2.209-1.013-2.334-2.254-.122-1.259.495-3.17 1.913-4.393 1.453-1.247 3.5-1.59 5.908-.99 2.382.592 4.048 2.656 4.46 5.53.455 3.198-.744 7.379-4.44 9.517-3.457 2.005-6.544 1.62-8.526.953-2.962-1.004-5.45-3.363-6.652-6.31l-.091-.22-.23-.037c-.111-.02-2.693-.453-5.755.44-2.834.83-6.61 2.999-8.486 8.641-.594 1.782-.537 5.968 1.436 9.707 1.515 2.86 3.86 4.816 6.746 5.648.168.068 4.12 1.592 10.817.085l.896 2.197c7.596 14.721 22.709 23.48 38.984 23.48 3.69 0 7.446-.452 11.184-1.386 12.74-3.184 24.605-10.812 31.255-19.763-6.763 13.765-18.317 22.11-34.427 24.837a57.75 57.75 0 0 1-2.01.3h-13.76z" fill="#CBD7E4"/>
      <path d="M34.217 181c.144.818.489 2.198 1.32 3.785 1.2 2.288 3.682 5.452 8.693 7.524 1.506.621 3.105 1.195 4.77 1.624-3.128 1.573-12.548 6.51-20.523 12.678h-.067c-1.326.07-2.383.271-2.917.389-1.413-3.36-4.129-5.731-7.497-6.53a10.823 10.823 0 0 0-2.996-.277c7.653-9.452 16.84-17.236 19.217-19.193" fill="#EBD4C6"/>
      <path d="M90.154 124c1.128 1.132 7.622 7.028 20.694 7.186.184.003.366.006.55.006 7.21 0 13.94-1.709 18.756-3.353.476.357 2.212 1.754 6.213 5.834 4.547 4.648 10.032 22.11 10.633 24.057-4.394 7.186-34.962 17.215-59.568 11.659-22.207-5.014-28.625-16.367-29.432-17.974.626-.999 3.995-6.04 13.563-15.377 5.564-5.435 10.386-8.43 13.446-9.987 2.694-1.372 4.536-1.898 5.145-2.051m15.386-57.066l-.746-.397c-.034.073-1.277 2.429-2.918 6.38-6.135-1.918-11.073-4.183-15-6.45l-.078-.537c-.226.031-.446.065-.668.096-9.468-5.653-12.757-11.182-12.805-11.261l-.727.417c.183.322 3.28 5.55 12.17 11.044-7.517 1.084-12.95 1.583-17.421.144-5.414-1.735-8.718-6.223-10.71-14.539-2.726-11.39-1.446-15.487-.446-16.917.49-.688.973-.869 1.145-.914 6.634 2.466 43.624 14.954 53.478 17.634 3.836 1.04 6.285 2.302 8.647 3.517 2.348 1.208 4.569 2.347 7.86 3.098 3.46.79 6.83.38 10.097-.014 3.28-.398 6.668-.807 10.079.034l.479.115c6.666 1.648 10.005 2.471 26.494-.728 15.93-3.091 41.587-10.493 43.91-11.168.526.373 2.928 2.81.667 15.157-.225 1.236-.595 3.256-1.243 5.52a.404.404 0 0 0-.087.243c0 .012.005.02.008.031a42.01 42.01 0 0 1-.501 1.577.413.413 0 0 0-.1.263c0 .003.004.008.004.014-1.556 4.415-4.225 9.08-8.887 10.361-1.223.336-5.093.37-9.992.412-7.37.065-17.192.155-26.192 1.238 9.803-2.383 22.117-5.856 31.094-9.842 5.115-2.274 8.706-4.516 10.654-6.669l-.623-.567c-1.872 2.065-5.361 4.24-10.372 6.466-14.23 6.319-36.945 11.351-44.493 12.76-.282.047-.567.095-.84.143-9.225 1.577-15.885 2.717-21.905 2l-.096.838c1.3.155 2.621.225 3.99.225 5.102 0 10.827-.976 18.152-2.234.26-.042.53-.09.795-.135-.299.251-.62.536-.973.857-10.47 8.02-30.321 13.978-30.532 14.043l.24.807c.19-.06 16.127-4.84 27.093-11.645-2.026 2.243-4.055 4.948-5.07 7.557-2.35 6.068-8.174 16.469-13.788 20.67-1.046.287-12.934 3.48-23.997 3.421-10.465-.076-16.029-4.417-16.908-5.16-1.302-24.403 10.939-47.67 11.063-47.905" fill="#B87E74"/>
      <path d="M41.535 44.798c-5.714 1.78-7.771-.188-8.923-2.097-.891-1.48.124-3.834.136-3.857l.15-.34-.306-.2c-.014-.008-1.306-.87-1.907-2.35-.548-1.344.83-2.913.844-2.928l.324-.383-.415-.274c-.008-.006-.855-.589-1.106-2.804-.237-2.083 2.828-2.691 2.859-2.697l.759-.144-.528-.574c-7.23-7.935-7.82-10.944-8.344-13.594-.158-.805-.074-1.443.242-1.895.282-.399.692-.583.946-.661 1.924 2.608 13.26 14.647 18.61 17.59 4.868 2.682 8.25 8.77 8.754 9.717-.403 2.129-.437 5.33.37 10.15-7.052 1.188-9.953.205-11.147-.84-.776-.683-.773-1.364-.773-1.387l.028-.611-.573.179z" fill="#EBD4C6"/>
      <path d="M145.744 16.703c2.84-1.11 6.39-.891 9.047.56 1.485.813 3.39 2.395 4.03 5.32.764 3.487-1.062 5.42-2.692 6.417-5.81-4.486-11.416-4.596-12.966-4.53-.36-2.642-.36-6.62 2.581-7.767" fill="#352D2B"/>
      <path d="M166.831 250.997c-6.588.088-10.085-1.716-11.855-3.226-1.85-1.577-2.245-3.18-2.248-3.194l-.183-.809-.552.625c-.051.057-5.027 5.533-13.51 5.533-1.902 0-3.867-.278-5.829-.817-7.171-1.976-8.607-9.793-8.621-9.872l-.069-.416-.423.071c-.011.003-1.135.184-2.762.184-4.527 0-12.205-1.366-12.748-10.516-.22-3.641.732-6.598 2.825-8.79 2.605-2.733 6.503-3.703 9.285-3.703.907 0 1.744.105 2.382.292-1.361.61-3.786 2.04-4.981 4.797-1.227 2.827-.82 6.27 1.21 10.228 2.281 4.458 6.102 6.716 11.349 6.716 4.618 0 8.85-1.778 10.1-2.354 1.65 2.493 6.674 5.057 12.41 5.057.469 0 .94-.02 1.404-.054 3.506-.277 8.233-1.888 10.978-5.591 2.087-2.81 2.662-6.276 1.721-10.31-1.876-8.057-8.415-10.923-13.909-10.923-2.116 0-4.174.404-5.965 1.176-3.09 1.331-5.012 4.116-5.138 7.443-.126 3.273 1.587 6.242 4.46 7.74 1.133.59 2.223.888 3.235.888 3.817 0 5.27-4.094 5.333-4.269l-.792-.322c-.555 1.142-1.727 1.823-3.134 1.823-1.238 0-2.42-.534-3.169-1.416-.76-.91-1.026-2.126-.763-3.517.766-4.09 4.326-4.531 5.822-4.531.377 0 .615.028.615.03l.051.003c4.69 0 8.502 3.769 8.502 8.4 0 4.966-3.7 8.602-8.98 8.833-.07 0-7.586-.144-11.786-5.292l-.263-.325-.33.255c-.036.025-3.408 2.538-7.614 2.538-3.043 0-5.762-1.3-8.081-3.87-2.717-3.005-3.349-6.988-1.687-10.657.374-.829.846-1.6 1.392-2.299l.058-.014-.03-.017c2.074-2.609 5.245-4.198 8.642-4.198 1.19 0 2.4.195 3.598.569l.42.13.123-.41c.006-.02.583-1.906 2.373-3.788 2.411-2.539 5.745-3.828 9.903-3.828 3.895 0 7.051 1.168 9.39 3.463 1.748 1.716 2.363 3.457 2.368 3.474l.223.665.492-.51c.034-.033 3.437-3.519 8.765-3.519 1.604 0 3.234.314 4.855.942 7.744 2.99 7.695 10.606 7.69 10.929l-.01.483.487-.054c.003 0 .443-.05 1.135-.05 1.91 0 5.465.37 7.778 2.866 1.739 1.868 2.465 4.608 2.159 8.147-.28 3.299-2.285 5.651-5.948 6.994-2.897 1.063-5.848 1.097-6.17 1.097l-.381-.006-.083.314c-.009.028-.763 2.694-3.048 5.337-3.046 3.53-7.246 5.354-12.47 5.425" fill="#2D5B8A"/>
      <path d="M57.196 217.454c-.457-3.237-2.345-5.57-5.05-6.25-3.367-.846-5.453.17-6.608 1.177-1.702 1.476-2.325 3.694-2.184 5.13.144 1.464 1.446 2.755 3.018 3.013 1.392.227 2.573-.422 3.153-1.736.412-.928.448-1.773.099-2.514-.352-.757-1.026-1.226-1.539-1.484.606-.366 1.412-.389 2.193-.034 1.211.545 2.37 2.034 2.006 4.56-.414 2.854-3.15 4.063-5.698 4.006-2.871-.062-5.929-1.762-6.286-5.397-.237-2.406.264-4.278 1.485-5.566 2.029-2.143 5.418-1.995 5.452-1.992l.46.025-.017-.465c-.07-1.762 1.265-4.642 3.618-6.41 1.431-1.075 3.779-2.136 6.853-1.083 6.233 2.136 5.594 8.46 5.565 8.727l-.056.5.493-.029c2.21-.11 4.954 1.56 5.749 5.46.684 3.319-1.418 4.97-6.496 8.96l-1.225.967c-5.633 4.457-5.163 10.924-4.382 14.377.916 4.048 4.142 11.105 15.445 12.855 5.968.923 11.61-.485 15.29-1.83l-.223-.618c.082-.017.163-.034.24-.054l-.198-.823c-12.072 2.98-22.349-1.124-24.995-9.962-2.688-8.977 4.067-13.837 6.287-15.432l.29-.213c.223-.158.463-.332.71-.507 1.953-1.39 4.625-3.295 5.205-6.296.462-2.39.104-4.41-1.06-6.01-1.453-2.003-3.79-2.823-5.083-3.14 4.664-3.505 9.125-2.685 11.432-1.845 5.256 1.915 5.91 8.997 5.915 9.065l.048.573.53-.215c.045-.02 4.534-1.794 9.158 1.22 4.596 2.993 4.813 6.256 4.816 6.287l.265-.011c-1.034.258-2.215.414-3.57.431l.01.851c4.349-.06 7.065-1.492 8.759-3.212-.67 1.743-.947 3.729-.817 5.947.6 10.246 9.575 11.355 13.404 11.355 1.116 0 1.99-.082 2.466-.142.234.985 1 3.61 2.877 6.004-5.441 10.683-18.77 20.293-33.274 23.961-19.655 4.974-39.712-3.96-48.758-21.694l-1.138-2.848-.353.085c-6.574 1.586-10.527.056-10.609.022-2.714-.788-4.804-2.559-6.213-5.254-1.824-3.496-1.897-7.482-1.373-9.08 3.092-9.4 11.435-8.773 12.951-8.577 1.316 3.079 3.92 5.53 7.008 6.588 3.01 1.036 6.259.673 9.145-1.021 4.004-2.34 5.3-6.915 4.81-10.402" fill="#2D5B8A"/>
      <path d="M151.4 58.17c-.228-.474-.894-2.36.253-6.774.875-3.377 2.42-4.175 3.266-4.347.821-.168 1.43.13 1.64.371.337.388.59 1.527.75 3.371.037.39.076.734.5.723.163-.003.437-.073.461-.51.022-.424.581-1.66 1.305-2.97.48 1.821 1.138 6.195-1.73 10.966-2.41-.082-4.362-.394-6.445-.83" fill="#EBD4C6"/>
      <path d="M248.895 62.444c.239-.64.178-1.34.044-1.873.979-.153 1.67-.548 2.048-1.191.546-.923.274-2.07.033-2.737.67-.598 1.031-1.356 1.037-2.189 0-.778-.327-1.554-.859-2.104.494-.474.815-1.134.84-1.811.035-.85-.37-1.625-1.147-2.193-1.727-1.252-6.018-3.027-10.63-4.886-.167-.07-.335-.13-.496-.189-.239-.629-1.05-2.872-1.484-5.278-.452-2.5-.58-5.682 1.36-6.658.798-.406 1.585-.443 2.416-.11 2.805 1.111 5.922 6.32 9.808 16.382 4.348 11.268 6.948 18.82 3.633 21.049-.516.35-1.05.432-1.626.251-2.386-.748-4.574-5.532-4.977-6.463" fill="#A07032"/>
      <path d="M221.602 48.873c4.56-.136 6.185-1.426 8.39-3.19 1.536-1.228 5.619-3.892 10.326-2.057 3.574 1.394 8.977 3.502 10.83 4.805.57.402.858.908.832 1.471-.02.503-.304 1.018-.724 1.346-.767-.37-2.341-.78-4.137-1.247-2.241-.585-4.775-1.247-5.625-1.824l-.477.698c.972.66 3.472 1.31 5.89 1.943 1.786.467 3.633.948 4.141 1.276.571.373.955 1.08.952 1.768 0 .41-.145.967-.699 1.49-.69-.52-2.278-.933-4.994-1.561-1.784-.413-3.807-.88-4.279-1.276l-.545.65c.585.487 2.14.872 4.63 1.449 1.685.387 4.506 1.04 4.768 1.487.193.433.588 1.516.133 2.263-.287.467-.892.744-1.795.832-.534-.478-1.93-.905-4.563-1.632-1.528-.422-3.108-.854-3.582-1.166l-.466.71c.585.376 2.085.792 3.821 1.27 1.574.436 3.952 1.092 4.224 1.437.18.373.418 1.256.063 1.912-.222.41-.66.662-1.298.755-1.151.161-2.492.133-3.79.11-1.213-.028-2.469-.053-3.585.074l-.103.011c-2.358.277-6.747.78-10.588-.594-3.281-1.174-6.983-1.19-8.352-1.148 1.071-6.044 1.028-9.769.602-12.062" fill="#EBD4C6"/>
      <path d="M182.248 208.326a123.37 123.37 0 0 1-6.013 1.455 13.596 13.596 0 0 0-1.688-.796c-1.696-.656-3.407-.99-5.094-.99-2.99 0-5.374 1.024-6.977 2.005-1.183-.777-1.643-2.018-1.423-3.91.116-1.013.144-2.028.119-3.079.425.26 1.053.552 1.958.782 1.144.29 2.502.438 4.057.438 2.153 0 4.692-.28 7.602-.833 4.934-.939 13.283-2.952 13.714-5.876.056-.412-.028-.959-.578-1.522 3.404.076 6.36.572 7.822 1.604.527.37.814.79.87 1.244.048.438.13.838.21 1.22.529 2.683.825 4.16-14.58 8.258" fill="#A07032"/>
      <path d="M185.855 195.498c.59.336 1.22.837 1.138 1.429-.191 1.36-3.609 3.454-12.633 5.252-10.025 2-12.673-.228-13.083-.666-.079-1.44-.24-2.967-.42-4.675-.382-3.641-.86-8.17-.857-14.553.008-10.789 1.578-14.712 1.938-15.469 6.207-.802 14.893-4.703 18.889-9.179.72-.81 1.394-1.695 2.009-2.637-.666 3.01-1.93 8.735-4.18 18.781-3.82 17.077-2.794 22.292-2.75 22.506l.09.415.398-.094c2.866-.671 6.292-1.07 9.46-1.11" fill="#EBD4C6"/>
      <path d="M131.16 127.548c.758.296 4.536 1.692 9.619 1.692.99 0 2.035-.054 3.115-.18 3.346-.393 7.663-1.735 11.834-3.037 4.272-1.331 8.676-2.699 11.97-3.023.593.02 8.326.445 14.302 8.608 5.136 7.024 4.819 14.625 1.9 20.504l-.034-.008c0 .006-.011.048-.028.138a20.909 20.909 0 0 1-3.295 4.754c-5.35 5.78-19.797 10.79-24.15 8.388-3.764-2.083-5.26-10.596-5.602-12.928 12.204 2.65 19.092-2.278 19.38-2.49l-.49-.679c-.017.011-1.783 1.286-5.027 2.191-2.717.756-7.012 1.382-12.538.378 5.192-1.218 12.316-4.001 17.172-10.396l-.666-.513c-5.324 7.006-13.47 9.555-18.555 10.48l-.256-.062.009.104c-1.99.35-3.47.449-4.073.474-2.116-6.14-5.692-15.451-8.931-18.781-3.237-3.324-4.985-4.875-5.816-5.558.053-.02.11-.036.16-.056" fill="#B87E74"/>
      <path d="M143.846 26.38l.772.263-.034-.12c1.397.277 4.955 1.096 9.916 3.027.4.298 4.076 3.148 5.22 8.634-.082.06-.158.124-.231.185l.346.446c.04.244.076.494.107.749.006.022.477 2.388-1.371 5.463a30.937 30.937 0 0 0-1.637 3.137c-.135-.922-.35-1.74-.702-2.18-.391-.486-1.293-.9-2.357-.665-.975.216-2.744 1.146-3.662 4.956-.88 3.647-.66 5.707-.38 6.725a109.46 109.46 0 0 1-1.404-.34l-.478-.117c-3.558-.875-7.026-.454-10.375-.053-3.19.384-6.488.782-9.803.03a19.773 19.773 0 0 1-.198-.05c-.487-1.884-4.884-20.04 3.57-26.824 6.549-5.26 12.642-3.288 12.701-3.266" fill="#352D2B"/>
      <path d="M94.265 116c1.562 1.292 7.157 5.245 17.248 5.318.136.003.272.003.408.003 10.371 0 21.332-2.869 23.602-3.494L137 124.65c-1.93.99-13.223 6.499-25.927 6.346-7.196-.091-12.32-2.088-15.354-3.747-2.65-1.448-4.206-2.898-4.719-3.415L94.265 116z" fill="#2D5B8A"/>
      <path d="M76.599 179.32c-5.936 5.21-12.433 8.546-18.797 9.649-5.944 1.033-11.524.107-16.128-2.666l-.439.742c3.514 2.124 7.568 3.203 11.917 3.203 1.567 0 3.164-.139 4.797-.423 5.367-.932 10.818-3.412 15.959-7.224a79.69 79.69 0 0 0-1.5 1.987c-4.539 6.177-9.255 9.766-14.419 10.96-4.257.984-8.784.37-14.252-1.94-4.834-2.034-7.224-5.127-8.374-7.355-1.12-2.161-1.326-3.96-1.363-4.34 5.388-16.604 21.175-26.39 23.782-27.913 2.02 3.415 9.089 12.681 28.218 17.46-1.773.754-4.931 2.727-9.401 7.86z" fill="#B87E74"/>
      <path d="M18.71 227.863a21.031 21.031 0 0 0-1.3 4.137c-3.19-.89-4.417-3.999-4.428-4.035l-.191-.504-.444.315c-.331.234-1.454.58-2.81.58-1.703 0-4.667-.546-5.394-4.187-1.064-5.32 4.148-6.806 4.37-6.865l.432-.119-.143-.42c-.92-2.756-.724-5.167.573-6.98 1.235-1.718 3.45-2.785 5.782-2.785 1.65 0 3.155.55 4.131 1.512 2.58 2.549 2.249 4.973 1.988 5.897-.323 1.143-1.087 2.033-1.898 2.222a3.124 3.124 0 0 1-.668.081c-.716 0-.999-.352-1.114-.605.556-.47 1.168-1.524.66-3.222-.318-1.067-1.474-1.847-2.748-1.847-1.392 0-2.515.887-3.082 2.427-.452 1.25-.222 2.678.637 3.912 1.083 1.557 2.958 2.486 5.016 2.486 1.066 0 2.17-.242 3.28-.715 4.935-2.1 4.725-7.155 4.54-8.687.359-.04.718-.062 1.072-.062 5.88 0 8.788 5.761 8.807 6.516.026.926.135 1.749.222 2.284a16.865 16.865 0 0 0-2.939-.245c-2 0-5.058.335-8.271 1.943-2.56 1.287-4.662 3.7-6.08 6.966" fill="#2D5B8A"/>
      <g transform="translate(250)">
        <mask id="d" fill="#fff">
          <use xlink:href="#c"/>
        </mask>
        <path d="M104.5.783l-14 .25L56.245 16.31h-.003l-20.015 8.93c-.017.005-.029.01-.046.013L.387 41.217a119.22 119.22 0 0 1 2.209 5.186L104.248 1.17l.252-.386z" fill="#F7F7F7" mask="url(#d)"/>
      </g>
      <path d="M354 1L253 47.05c.042.111.085.217.13.332.634 1.62 1.228 3.159 1.775 4.618l64.746-27.231 26.068-10.962 1.6-2.476-.006-.304.203-.003L354 1z" fill="#DBDCDC"/>
    </g>
  </g>
</svg>
