<svg width="28" height="38" xmlns="http://www.w3.org/2000/svg">
  <g fill="#FFF">
    <path d="M18.985 21.117l-.395.342-2.547.467 1.184-2.328 1.758-1.349v-1.044H19v-4.243c0-.53-.41-.96-.916-.96L8.916 12c-.506 0-.916.43-.916.96v12.08c0 .53.41.96.916.96h9.168c.448 0 .82-.336.899-.78v-.002a1.01 1.01 0 0 0 .015-.178v-2.05h-.015v-1.873h.002zm-6.51-5.034v-.004h3.109v.006a.45.45 0 0 1 .363.45.449.449 0 0 1-.363.449v.005h-3.11v-.004a.45.45 0 0 1-.38-.453c0-.233.166-.42.38-.449zm-2.196.036l.532.552.664-.712.397.478-1.042.955-1.034-.825.483-.448zm.58 6.328l-1.034-.825.483-.447.532.551.664-.71.398.479-1.043.952zm.027-2.49l-1.034-.825.484-.448.531.552.664-.71.398.478-1.043.953zm4.7 2.28v.01h-.05a.358.358 0 0 1-.124 0h-2.876a.358.358 0 0 1-.062.006.44.44 0 0 1-.428-.45.44.44 0 0 1 .428-.449c.021 0 .042.002.062.006h2.876a.358.358 0 0 1 .124 0h.05v.01a.448.448 0 0 1 .317.434.447.447 0 0 1-.318.433zm-.014-2.625a.358.358 0 0 1-.062-.005h-2.974a.358.358 0 0 1-.062.005.44.44 0 0 1-.428-.45.44.44 0 0 1 .428-.449c.021 0 .042.002.062.006h2.974a.358.358 0 0 1 .062-.006.44.44 0 0 1 .428.45.44.44 0 0 1-.428.45z"/>
    <path d="M17 22l1.654-.337-.843-1.344L17 22zm1.106-1.976l.871 1.45 3.398-2.565-.914-1.44-3.355 2.555zm4.63-2.455c-.334-.527-.685-.569-.685-.569l-.279.194.944 1.508.276-.295s.078-.31-.256-.838z"/>
  </g>
</svg>
