<svg width="50" height="50" xmlns="http://www.w3.org/2000/svg">
  <g transform="translate(1 1)" fill="none" fill-rule="evenodd">
    <circle stroke="#42494E" stroke-width=".8" opacity=".6" cx="24" cy="24" r="24"/>
    <path d="M30.926 21.37c-2.164-.723-1.296-2.1-2.596-2.635-2.206-.908-4.327-.878-4.327-.878s-2.113-.023-4.326.878c-1.303.53-.432 1.912-2.597 2.635-2.288.764-3.482-.356-3.458-1.739.018-.927.58-1.973 1.728-2.652 2.938-1.74 8.653-1.757 8.653-1.757s5.716.018 8.654 1.757c1.139.674 1.702 1.71 1.727 2.632.036 1.393-1.158 2.527-3.458 1.76zm-9.876-.624h1.473v1.507h2.97v-1.507h1.484v1.507l5.947 5.265v3.513c0 .97-1.042 1.757-1.998 1.757H17.08c-.955 0-1.973-.787-1.973-1.757v-3.513l5.943-5.265v-1.507zm2.97 9.812c1.64 0 2.97-1.349 2.97-3.012 0-1.664-1.33-3.013-2.97-3.013-1.638 0-2.968 1.349-2.968 3.013 0 1.663 1.33 3.012 2.969 3.012z" fill="#42494E" fill-rule="nonzero"/>
  </g>
</svg>