<?xml version="1.0" standalone="no"?><!DOCTYPE svg PUBLIC "-//W3C//DTD SVG 1.1//EN" "http://www.w3.org/Graphics/SVG/1.1/DTD/svg11.dtd"><svg class="icon" width="200px" height="200.00px" viewBox="0 0 1024 1024" version="1.1" xmlns="http://www.w3.org/2000/svg"><path d="M667 647.7c-58.6 0-135.8-37.8-201.3-98.6L452.6 537l93.8-93.8 185.2 185.2-22 10.5c-12.3 5.8-26.7 8.8-42.6 8.8z" fill="#6FB0B6" /><path d="M628 338c-58.6-54.8-124.8-90.4-181.6-97.9l-60.5-7.9 55.7-24.9c33.4-14.9 68.6-22.5 104.9-22.5 61.8 0 121.8 22.5 168.9 63.3l14 12.1-89.1 89L628 338zM351.5 612c-40.8-47-63.3-107-63.3-168.8 0-36.2 7.6-71.5 22.4-104.8l24.9-55.7 7.9 60.5c7.5 57.1 43.1 123.3 97.7 181.8l11.4 12.2-88.9 88.9-12.1-14.1z" fill="#A9D0D3" /><path d="M546.4 701.3c-61.9 0-121.8-22.5-168.9-63.3l-14-12.1 89.1-89 12.1 11.4c58.6 54.8 124.8 90.4 181.7 97.9L707 654l-55.7 24.9c-33.4 14.9-68.7 22.4-104.9 22.4zM546.4 443.2l93.7-93.7 12.2 13C732.1 448.3 769 548.4 742 606l-10.4 22.2-185.2-185z" fill="#6FB0B6" /><path d="M361.1 258l22-10.5c12.4-5.9 26.8-8.9 42.7-8.9 58.6 0 135.8 37.8 201.3 98.6l13.1 12.2-93.9 93.9L361.1 258z" fill="#A9D0D3" /><path d="M440.7 523.7C360.9 438 324 337.9 350.9 280.3l10.4-22.2 185.1 185.1-93.6 93.6-12.1-13.1z" fill="#A9D0D3" /><path d="M749.4 543.2c-7.5-57.1-43.1-123.3-97.7-181.8l-11.4-12.1 88.9-88.9 12.1 13.9c40.8 47.1 63.3 107 63.3 168.9 0 36.2-7.6 71.5-22.4 104.8l-24.9 55.7-7.9-60.5z" fill="#6FB0B6" /><path d="M546.4 167.7c-69.9 0-133.5 26.2-182.1 69.1l-48.7-48.7c-69.6 63-113.5 153.7-113.5 255 0 184.3 145 334.4 327.1 343.4v35.3H391.5c-9.5 0-17.2 7.7-17.2 17.2s7.7 17.2 17.2 17.2h309.8c9.5 0 17.2-7.7 17.2-17.2s-7.7-17.2-17.2-17.2H563.6v-35.4c94.2-4.7 178.4-47 237.8-112.6l-48.7-48.7c42.9-48.6 69.1-112.2 69.1-182.1 0-152-123.3-275.3-275.4-275.3z m0 34.5c60.3 0 115.3 22.4 157.6 59.1l-64.2 64.2c-62.7-58.6-132.7-94.7-191.2-102.3 29.9-13.4 63-21 97.8-21z m-93.3 358.6c62.7 58.6 132.7 94.7 191.2 102.3-29.9 13.4-63 21-97.8 21-60.3 0-115.3-22.4-157.6-59.1l64.2-64.2z m-88.6 39.9c-36.7-42.3-59.1-97.3-59.1-157.6 0-34.8 7.6-67.9 20.9-97.8 7.6 58.5 43.6 128.6 102.2 191.3l-64 64.1z m112.9-64.2l69-69 155.8 155.8c-9.7 4.6-21.3 7.2-35.2 7.2-54.9 0-127.8-36.7-189.6-94z m93.3-93.3l68.9-68.9c80.5 86.5 108 179.1 86.7 224.4L570.7 443.2zM425.9 255.8c54.9 0 127.8 36.6 189.6 94l-69.1 69.1L390.5 263c9.7-4.6 21.4-7.2 35.4-7.2z m-59.4 31.8l155.6 155.6-68.8 68.8c-80.5-86.5-108-179-86.8-224.4zM546.4 753c-170.8 0-309.8-139-309.8-309.8 0-79.3 30.2-151.4 79.3-206.2l24.2 24.2c-42.9 48.5-69.1 112.1-69.1 182 0 152.1 123.3 275.4 275.4 275.4 69.9 0 133.4-26.2 182-69.1l24.2 24.2C697.8 722.8 625.7 753 546.4 753z m117.8-403.3l64.1-64.1c36.7 42.3 59.1 97.3 59.1 157.6 0 34.8-7.6 67.9-20.9 97.8-7.7-58.5-43.7-128.7-102.3-191.3z" fill="#573A32" /></svg>