<?xml version="1.0" standalone="no"?><!DOCTYPE svg PUBLIC "-//W3C//DTD SVG 1.1//EN" "http://www.w3.org/Graphics/SVG/1.1/DTD/svg11.dtd"><svg class="icon" width="200px" height="200.00px" viewBox="0 0 1024 1024" version="1.1" xmlns="http://www.w3.org/2000/svg"><path d="M649.7 733.7V359.1l189.4 94.7v374.6z" fill="#A0BF7C" /><path d="M443.2 288.2c-28.5 0-51.6-23.2-51.6-51.6 0-28.5 23.2-51.6 51.6-51.6 28.5 0 51.6 23.2 51.6 51.6 0 28.4-23.2 51.6-51.6 51.6z" fill="#FEDEA1" /><path d="M374.3 461.5l275.4-103.3v376.4L374.3 837.9z" fill="#B3CC96" /><path d="M185 742.3V367.7l189.3 94.7V837z" fill="#788F5D" /><path d="M460.4 410.9V303c29.6-7.7 51.6-34.4 51.6-66.4 0-38-30.8-68.9-68.9-68.9-38 0-68.9 30.8-68.9 68.9 0 32.1 22 58.7 51.6 66.4v120.8l-51.6 19.4-206.5-103.3V753l206.6 103.3L649.7 753l206.6 103.3V443.1L649.7 339.9l-189.3 71zM357.1 809.2l-154.9-77.5V395.6L357.1 473v336.2z m51.6-572.6c0-19 15.4-34.4 34.4-34.4s34.4 15.4 34.4 34.4-15.4 34.4-34.4 34.4c-18.9 0-34.4-15.4-34.4-34.4z m223.8 486.1l-241 90.4V473.4l34.4-12.9v189.2h34.4V447.6L632.4 383v339.7zM666.9 387l154.9 77.5v336.2l-154.9-77.5V387z" fill="#573A32" /></svg>