<?xml version="1.0" standalone="no"?><!DOCTYPE svg PUBLIC "-//W3C//DTD SVG 1.1//EN" "http://www.w3.org/Graphics/SVG/1.1/DTD/svg11.dtd"><svg class="icon" width="200px" height="200.00px" viewBox="0 0 1024 1024" version="1.1" xmlns="http://www.w3.org/2000/svg"><path d="M280.707166 743.301251a327.1 327.1 0 1 0 462.581183-462.59733 327.1 327.1 0 1 0-462.581183 462.59733Z" fill="#A9D0D3" /><path d="M451.8 476.2l187.1-149.8 26.2 21.1-114 228z" fill="#FF877F" /><path d="M512 856.3c190.1 0 344.3-154.1 344.3-344.3 0-190.1-154.1-344.3-344.3-344.3-190.1 0-344.3 154.1-344.3 344.3 0 190.1 154.2 344.3 344.3 344.3zM494.8 203v33.6c0 9.5 7.7 17.2 17.2 17.2s17.2-7.7 17.2-17.2V203c157.1 8.7 283.1 134.7 291.8 291.8h-33.6c-9.5 0-17.2 7.7-17.2 17.2s7.7 17.2 17.2 17.2H821C812.3 686.3 686.3 812.3 529.2 821v-33.6c0-9.5-7.7-17.2-17.2-17.2s-17.2 7.7-17.2 17.2V821C337.7 812.3 211.7 686.3 203 529.2h33.6c9.5 0 17.2-7.7 17.2-17.2s-7.7-17.2-17.2-17.2H203c8.7-157.1 134.7-283.1 291.8-291.8z" fill="#573A32" /><path d="M352.6 710.9c6.3 5.1 14 7.6 21.6 7.6 7.6 0 15.2-2.5 21.5-7.6L568 573.3c3.9-3.1 7-7 9.3-11.5l103.3-206.6c7.2-14.5 3.4-32-9.1-42.2-6.3-5.1-14-7.6-21.6-7.6-7.6 0-15.2 2.5-21.5 7.6L456.1 450.7c-3.9 3.1-7 7-9.3 11.5L343.5 668.7c-7.2 14.5-3.4 32 9.1 42.2z m297.1-371L546.4 546.4l-68.9-68.9 172.2-137.6z" fill="#573A32" /></svg>