<?xml version="1.0" standalone="no"?><!DOCTYPE svg PUBLIC "-//W3C//DTD SVG 1.1//EN" "http://www.w3.org/Graphics/SVG/1.1/DTD/svg11.dtd"><svg class="icon" width="200px" height="200.00px" viewBox="0 0 1024 1024" version="1.1" xmlns="http://www.w3.org/2000/svg"><path d="M374.3 598.1V460.4h334.2l68.8 68.8-68.8 68.9z" fill="#FF877F" /><path d="M315.5 391.5l-68.8-68.8 68.8-68.9h334.2v137.7z" fill="#FEDEA1" /><path d="M546.4 856.3v-241h154.9c9.1 0 17.9-3.6 24.3-10.1l51.6-51.6c13.4-13.4 13.4-35.2 0-48.7l-51.6-51.6c-6.5-6.5-15.2-10.1-24.3-10.1H546.4v-34.4h86.1c19 0 34.4-15.4 34.4-34.4V271c0-19-15.4-34.4-34.4-34.4h-86.1v-68.9H512v68.9H322.7c-9.1 0-17.9 3.6-24.3 10.1l-51.6 51.6c-13.4 13.4-13.4 35.2 0 48.7l51.6 51.6c6.5 6.5 15.2 10.1 24.3 10.1H512v34.4H391.5c-19 0-34.4 15.4-34.4 34.4v103.3c0 19 15.4 34.4 34.4 34.4H512v241h34.4z m-223.7-482L271 322.7l51.6-51.6h309.8v103.3H322.7z m68.8 206.6V477.6h309.8l51.6 51.6-51.6 51.6H391.5z" fill="#573A32" /></svg>